<svg xmlns="http://www.w3.org/2000/svg" width="48" height="48"><defs><linearGradient id="a"><stop offset="0" stop-color="#fff"/><stop offset="1" stop-color="#fff9f9" stop-opacity=".729"/></linearGradient></defs><path style="marker:none" d="M0 0v48h48V0zm7 12a4 4 0 110 8 4 4 0 010-8zm33 0a4 4 0 110 8 4 4 0 010-8zm-16 4c5.68 0 18 7.93 18 11.895 0 .023-.01.043-.014.066.004.048.014.098.014.144C42 32.07 29.68 40 24 40S6 32.07 6 28.105c0-.046.01-.096.014-.144-.003-.022-.014-.044-.014-.066C6 23.93 18.32 16 24 16zm17.693 12.404c-.94.668-3.993.67-7.787 1.063-9.565.99-24.602 1.166-27.433-.846 1.233 1.145 8.782 2.998 17.185 2.998 9.027 0 18.041-2.112 18.041-3.203 0-.004-.005-.008-.006-.012z" color="#000" overflow="visible"/></svg>