<svg height="192" width="192" xmlns="http://www.w3.org/2000/svg"><path d="M0 0v192h192V0zm28 48c8.843 0 16 7.157 16 16 0 8.832-7.157 16-16 16s-16-7.168-16-16c0-8.843 7.157-16 16-16zm132 0c8.832 0 16 7.157 16 16 0 8.832-7.168 16-16 16s-16-7.168-16-16c0-8.843 7.168-16 16-16zM96 64c22.721 0 72 31.72 72 47.578 0 .095-.044.175-.055.266.014.191.055.39.055.578C168 128.28 118.721 160 96 160c-22.721 0-72-31.72-72-47.578 0-.187.041-.387.055-.578-.01-.09-.055-.175-.055-.266C24 95.72 73.279 64 96 64zm70.773 49.617c-3.763 2.67-15.972 2.68-31.148 4.25-38.26 3.959-98.41 4.665-109.734-3.383 4.934 4.58 35.13 11.993 68.742 11.993 36.106 0 72.164-8.45 72.164-12.813 0-.016-.022-.03-.024-.047z"/></svg>