<svg xmlns="http://www.w3.org/2000/svg" width="64" height="112"><path d="M55.52 32.48c-2.917-2.917-7.948-2.584-11.279.747L32 45.47 19.759 33.227c-3.331-3.33-8.362-3.664-11.279-.747-2.917 2.917-2.584 7.948.747 11.279L21.47 56 9.227 68.241c-3.33 3.331-3.664 8.362-.747 11.28 2.917 2.916 7.948 2.583 11.279-.748L32 66.53l12.241 12.242c3.331 3.33 8.362 3.664 11.279.747 2.917-2.917 2.584-7.948-.747-11.279L42.53 56l12.242-12.241c3.33-3.331 3.664-8.362.747-11.279z" stroke="#fff" stroke-width="3" stroke-linecap="round"/></svg>